<svg width="53" height="52" viewBox="0 0 63 62" fill="none" xmlns="http://www.w3.org/2000/svg"><path d="M33.369 -0.00187683H62.5131V11.7896H33.369V-0.00187683Z" fill="#5CCFAC"></path><path fill-rule="evenodd" clip-rule="evenodd" d="M50.3987 36.7297C47.82 44.412 40.5618 49.9466 32.0109 49.9466C21.3013 49.9466 12.6194 41.2647 12.6194 30.5551C12.6194 21.9011 18.2883 14.5711 26.1152 12.0761L26.1152 -0.00187683C11.7502 2.75326 0.896164 15.3866 0.896164 30.5551C0.896164 47.7393 14.8267 61.6699 32.0109 61.6699C47.0811 61.6699 59.6489 50.9561 62.5131 36.7297H50.3987Z" fill="#5CCFAC"></path><path fill-rule="evenodd" clip-rule="evenodd" d="M38.5014 37.717C36.6585 31.6174 31.892 26.7868 25.8316 24.8549L25.8316 12.7769C38.3804 15.1837 48.25 25.1288 50.545 37.717H38.5014Z" fill="#5CCFAC"></path></svg>